# Blender v2.80 (sub 39) OBJ File: 'tunnel.blend'
# www.blender.org
mtllib tunnel.mtl
o Cylinder.001_Cylinder.002
v 0.923880 0.382683 -1.000000
v 0.923880 0.382683 1.000000
v 0.980785 0.195090 -1.000000
v 0.980785 0.195090 1.000000
v 1.000000 0.000000 -1.000000
v 1.000000 0.000000 1.000000
v 0.831470 0.555570 -1.000000
v 0.831470 0.555570 1.000000
v 0.831494 0.344416 -1.000000
v 0.831494 0.344416 1.000000
v 0.882708 0.175583 -1.000000
v 0.882708 0.175583 1.000000
v 0.900482 -0.009799 -1.000000
v 0.900482 -0.009799 1.000000
v 0.743280 0.508431 -1.000000
v 0.743280 0.508431 1.000000
vt 0.843750 0.500000
vt 0.843750 1.000000
vt 0.812500 1.000000
vt 0.812500 0.500000
vt 0.781250 1.000000
vt 0.781250 0.500000
vt 0.750000 1.000000
vt 0.750000 0.500000
vt 0.843750 0.500000
vt 0.812500 0.500000
vt 0.812500 1.000000
vt 0.843750 1.000000
vt 0.781250 0.500000
vt 0.781250 1.000000
vt 0.750000 0.500000
vt 0.750000 1.000000
vn 0.8819 0.4714 0.0000
vn 0.9569 0.2903 0.0000
vn 0.9952 0.0980 0.0000
vn -0.8807 -0.4737 -0.0000
vn -0.9569 -0.2903 -0.0000
vn -0.9954 -0.0954 -0.0000
vn 0.0000 0.0000 -1.0000
vn 0.0000 0.0000 1.0000
vn 0.0980 -0.9952 -0.0000
vn -0.4714 0.8819 0.0000
usemtl Material.001
s off
f 7/1/1 8/2/1 2/3/1 1/4/1
f 1/4/2 2/3/2 4/5/2 3/6/2
f 3/6/3 4/5/3 6/7/3 5/8/3
usemtl Material.002
f 15/9/4 9/10/4 10/11/4 16/12/4
f 9/10/5 11/13/5 12/14/5 10/11/5
f 11/13/6 13/15/6 14/16/6 12/14/6
usemtl Material.003
f 7/1/7 1/4/7 9/10/7 15/9/7
f 2/3/8 8/2/8 16/12/8 10/11/8
f 1/4/7 3/6/7 11/13/7 9/10/7
f 4/5/8 2/3/8 10/11/8 12/14/8
f 3/6/7 5/8/7 13/15/7 11/13/7
f 6/7/8 4/5/8 12/14/8 14/16/8
f 5/8/9 6/7/9 14/16/9 13/15/9
f 8/2/10 7/1/10 15/9/10 16/12/10
o Cylinder.002_Cylinder.003
v 0.335545 0.835690 -1.000000
v 0.335545 0.835690 1.000000
v 0.500014 0.748325 -1.000000
v 0.500014 0.748325 1.000000
v 0.636398 0.636398 -1.000000
v 0.636398 0.636398 1.000000
v 0.754169 0.492131 -1.000000
v 0.754169 0.492131 1.000000
v 0.382683 0.923880 -1.000000
v 0.382683 0.923879 1.000000
v 0.555570 0.831470 -1.000000
v 0.555570 0.831470 1.000000
v 0.707107 0.707107 -1.000000
v 0.707107 0.707107 1.000000
v 0.831470 0.555570 -1.000000
v 0.831470 0.555570 1.000000
vt 0.937500 0.500000
vt 0.937500 1.000000
vt 0.906250 1.000000
vt 0.906250 0.500000
vt 0.875000 1.000000
vt 0.875000 0.500000
vt 0.843750 1.000000
vt 0.843750 0.500000
vt 0.937500 0.500000
vt 0.906250 0.500000
vt 0.906250 1.000000
vt 0.937500 1.000000
vt 0.875000 0.500000
vt 0.875000 1.000000
vt 0.843750 0.500000
vt 0.843750 1.000000
vn 0.4691 0.8831 0.0000
vn 0.6344 0.7730 0.0000
vn 0.7747 0.6324 0.0000
vn -0.4714 -0.8819 -0.0000
vn -0.6344 -0.7730 -0.0000
vn -0.7730 -0.6344 -0.0000
vn 0.8819 -0.4714 -0.0000
vn 0.0000 0.0000 1.0000
vn 0.0000 0.0000 -1.0000
vn -0.6344 0.7730 0.0000
usemtl Material.001
s off
f 17/17/11 18/18/11 20/19/11 19/20/11
f 19/20/12 20/19/12 22/21/12 21/22/12
f 21/22/13 22/21/13 24/23/13 23/24/13
usemtl Material.002
f 25/25/14 27/26/14 28/27/14 26/28/14
f 27/26/15 29/29/15 30/30/15 28/27/15
f 29/29/16 31/31/16 32/32/16 30/30/16
usemtl Material.003
f 18/18/17 17/17/17 25/25/17 26/28/17
f 17/17/18 19/20/18 27/26/18 25/25/18
f 20/19/19 18/18/19 26/28/19 28/27/19
f 19/20/18 21/22/18 29/29/18 27/26/18
f 22/21/19 20/19/19 28/27/19 30/30/19
f 21/22/18 23/24/18 31/31/18 29/29/18
f 24/23/19 22/21/19 30/30/19 32/32/19
f 23/24/20 24/23/20 32/32/20 31/31/20
o Cylinder.003_Cylinder.004
v 0.000000 0.900000 -1.000000
v 0.000000 0.900000 1.000000
v 0.175583 0.882708 -1.000000
v 0.175583 0.882708 1.000000
v 0.353657 0.828186 -1.000000
v 0.353657 0.828186 1.000000
v -0.353656 0.828186 -1.000000
v -0.353656 0.828186 1.000000
v -0.175581 0.882708 -1.000000
v -0.175581 0.882708 1.000000
v 0.000000 1.000000 -1.000000
v 0.000000 1.000000 1.000000
v 0.195090 0.980785 -1.000000
v 0.195090 0.980785 1.000000
v 0.382683 0.923880 -1.000000
v 0.382683 0.923879 1.000000
v -0.382682 0.923880 -1.000000
v -0.382682 0.923880 1.000000
v -0.195089 0.980786 -1.000000
v -0.195089 0.980785 1.000000
vt 1.000000 0.500000
vt 1.000000 1.000000
vt 0.968750 1.000000
vt 0.968750 0.500000
vt 0.937500 1.000000
vt 0.937500 0.500000
vt 0.062500 0.500000
vt 0.062500 1.000000
vt 0.031250 1.000000
vt 0.031250 0.500000
vt 0.000000 1.000000
vt 0.000000 0.500000
vt 1.000000 0.500000
vt 0.968750 0.500000
vt 0.968750 1.000000
vt 1.000000 1.000000
vt 0.937500 0.500000
vt 0.937500 1.000000
vt 0.062500 0.500000
vt 0.031250 0.500000
vt 0.031250 1.000000
vt 0.062500 1.000000
vt 0.000000 0.500000
vt 0.000000 1.000000
vn 0.0980 0.9952 0.0000
vn 0.2928 0.9562 0.0000
vn -0.2928 0.9562 0.0000
vn -0.0980 0.9952 0.0000
vn -0.0980 -0.9952 -0.0000
vn -0.2903 -0.9569 -0.0000
vn 0.2903 -0.9569 -0.0000
vn 0.0980 -0.9952 -0.0000
vn -0.0000 0.0000 1.0000
vn 0.0000 0.0000 -1.0000
vn -0.9569 0.2903 0.0000
vn 0.9569 0.2903 0.0000
usemtl Material.001
s off
f 33/33/21 34/34/21 36/35/21 35/36/21
f 35/36/22 36/35/22 38/37/22 37/38/22
f 39/39/23 40/40/23 42/41/23 41/42/23
f 41/42/24 42/41/24 34/43/24 33/44/24
usemtl Material.002
f 43/45/25 45/46/25 46/47/25 44/48/25
f 45/46/26 47/49/26 48/50/26 46/47/26
f 49/51/27 51/52/27 52/53/27 50/54/27
f 51/52/28 43/55/28 44/56/28 52/53/28
usemtl Material.003
f 33/33/29 35/36/29 45/46/29 43/45/29
f 36/35/30 34/34/30 44/48/30 46/47/30
f 35/36/29 37/38/29 47/49/29 45/46/29
f 38/37/30 36/35/30 46/47/30 48/50/30
f 37/38/31 38/37/31 48/50/31 47/49/31
f 40/40/32 39/39/32 49/51/32 50/54/32
f 39/39/29 41/42/29 51/52/29 49/51/29
f 42/41/30 40/40/30 50/54/30 52/53/30
f 41/42/29 33/44/29 43/55/29 51/52/29
f 34/43/30 42/41/30 52/53/30 44/56/30
o Cylinder.004_Cylinder.005
v -0.754169 0.492132 -1.000000
v -0.754169 0.492132 1.000000
v -0.636398 0.636399 -1.000000
v -0.636398 0.636399 1.000000
v -0.500013 0.748326 -1.000000
v -0.500013 0.748326 1.000000
v -0.335543 0.835691 -1.000000
v -0.335543 0.835691 1.000000
v -0.831469 0.555571 -1.000000
v -0.831469 0.555571 1.000000
v -0.707106 0.707108 -1.000000
v -0.707106 0.707108 1.000000
v -0.555569 0.831470 -1.000000
v -0.555569 0.831470 1.000000
v -0.382682 0.923880 -1.000000
v -0.382682 0.923880 1.000000
vt 0.156250 0.500000
vt 0.156250 1.000000
vt 0.125000 1.000000
vt 0.125000 0.500000
vt 0.093750 1.000000
vt 0.093750 0.500000
vt 0.062500 1.000000
vt 0.062500 0.500000
vt 0.156250 0.500000
vt 0.125000 0.500000
vt 0.125000 1.000000
vt 0.156250 1.000000
vt 0.093750 0.500000
vt 0.093750 1.000000
vt 0.062500 0.500000
vt 0.062500 1.000000
vn -0.7747 0.6324 0.0000
vn -0.6344 0.7730 0.0000
vn -0.4691 0.8831 0.0000
vn 0.7730 -0.6344 -0.0000
vn 0.6344 -0.7730 -0.0000
vn 0.4714 -0.8819 -0.0000
vn 0.6344 0.7730 0.0000
vn 0.0000 -0.0000 1.0000
vn 0.0000 0.0000 -1.0000
vn -0.8819 -0.4714 -0.0000
usemtl Material.001
s off
f 53/57/33 54/58/33 56/59/33 55/60/33
f 55/60/34 56/59/34 58/61/34 57/62/34
f 57/62/35 58/61/35 60/63/35 59/64/35
usemtl Material.002
f 61/65/36 63/66/36 64/67/36 62/68/36
f 63/66/37 65/69/37 66/70/37 64/67/37
f 65/69/38 67/71/38 68/72/38 66/70/38
usemtl Material.003
f 54/58/39 53/57/39 61/65/39 62/68/39
f 53/57/40 55/60/40 63/66/40 61/65/40
f 56/59/41 54/58/41 62/68/41 64/67/41
f 55/60/40 57/62/40 65/69/40 63/66/40
f 58/61/41 56/59/41 64/67/41 66/70/41
f 57/62/40 59/64/40 67/71/40 65/69/40
f 60/63/41 58/61/41 66/70/41 68/72/41
f 59/64/42 60/63/42 68/72/42 67/71/42
o Cylinder.005_Cylinder.006
v -1.000000 0.000001 -1.000000
v -1.000000 0.000001 1.000000
v -0.980785 0.195091 -1.000000
v -0.980785 0.195091 1.000000
v -0.923879 0.382684 -1.000000
v -0.923879 0.382684 1.000000
v -0.831469 0.555571 -1.000000
v -0.831469 0.555571 1.000000
v -0.900482 -0.009798 -1.000000
v -0.900482 -0.009799 1.000000
v -0.882708 0.175584 -1.000000
v -0.882708 0.175584 1.000000
v -0.831493 0.344417 -1.000000
v -0.831493 0.344417 1.000000
v -0.743280 0.508432 -1.000000
v -0.743280 0.508432 1.000000
vt 0.250000 0.500000
vt 0.250000 1.000000
vt 0.218750 1.000000
vt 0.218750 0.500000
vt 0.187500 1.000000
vt 0.187500 0.500000
vt 0.156250 1.000000
vt 0.156250 0.500000
vt 0.250000 0.500000
vt 0.218750 0.500000
vt 0.218750 1.000000
vt 0.250000 1.000000
vt 0.187500 0.500000
vt 0.187500 1.000000
vt 0.156250 0.500000
vt 0.156250 1.000000
vn -0.9952 0.0980 0.0000
vn -0.9569 0.2903 0.0000
vn -0.8819 0.4714 0.0000
vn 0.9954 -0.0954 -0.0000
vn 0.9569 -0.2903 -0.0000
vn 0.8807 -0.4737 -0.0000
vn -0.0980 -0.9952 -0.0000
vn 0.0000 0.0000 -1.0000
vn 0.0000 0.0000 1.0000
vn 0.4714 0.8819 0.0000
usemtl Material.001
s off
f 69/73/43 70/74/43 72/75/43 71/76/43
f 71/76/44 72/75/44 74/77/44 73/78/44
f 73/78/45 74/77/45 76/79/45 75/80/45
usemtl Material.002
f 77/81/46 79/82/46 80/83/46 78/84/46
f 79/82/47 81/85/47 82/86/47 80/83/47
f 81/85/48 83/87/48 84/88/48 82/86/48
usemtl Material.003
f 70/74/49 69/73/49 77/81/49 78/84/49
f 69/73/50 71/76/50 79/82/50 77/81/50
f 72/75/51 70/74/51 78/84/51 80/83/51
f 71/76/50 73/78/50 81/85/50 79/82/50
f 74/77/51 72/75/51 80/83/51 82/86/51
f 73/78/50 75/80/50 83/87/50 81/85/50
f 76/79/51 74/77/51 82/86/51 84/88/51
f 75/80/52 76/79/52 84/88/52 83/87/52
